<?xml version="1.0" standalone="no"?>
<!DOCTYPE svg PUBLIC "-//W3C//DTD SVG 20010904//EN"
 "http://www.w3.org/TR/2001/REC-SVG-20010904/DTD/svg10.dtd">
<svg version="1.0" xmlns="http://www.w3.org/2000/svg"
 width="150.000000pt" height="103.000000pt" viewBox="0 0 150.000000 103.000000"
 preserveAspectRatio="xMidYMid meet">
<metadata>
Created by potrace 1.15, written by Peter Selinger 2001-2017
</metadata>
<g transform="translate(0.000000,103.000000) scale(0.100000,-0.100000)"
fill="#000000" stroke="none">
<path d="M574 984 c-175 -29 -358 -121 -443 -223 -68 -82 -96 -152 -96 -246 0
-94 28 -164 96 -246 116 -138 376 -239 619 -239 243 0 503 101 619 239 68 82
96 152 96 246 0 94 -28 164 -96 246 -149 178 -491 274 -795 223z m509 -92 c66
-38 97 -112 97 -229 0 -67 2 -73 21 -73 21 0 79 -50 79 -69 0 -17 -41 -39 -98
-54 -48 -12 -56 -18 -81 -63 -16 -27 -47 -69 -70 -94 -37 -41 -36 -38 19 45
32 49 58 90 57 91 -1 1 -23 0 -49 -3 -43 -5 -49 -9 -67 -44 -20 -38 -17 -51 7
-27 8 8 15 9 22 2 11 -11 -17 -74 -33 -74 -5 0 -6 4 -3 9 3 5 -1 14 -9 21 -13
11 -14 10 -9 -6 4 -14 4 -16 -4 -5 -6 8 -19 12 -31 8 -12 -3 -21 -1 -21 4 0 5
9 9 19 9 13 0 24 13 35 41 9 23 15 44 12 47 -3 2 -52 4 -108 4 l-103 0 147 13
c207 18 204 17 222 72 19 56 20 63 4 63 -7 0 -22 12 -35 28 l-22 27 -1 -29 c0
-25 -2 -27 -17 -15 -15 12 -16 12 -10 -3 3 -10 2 -18 -2 -18 -19 0 -41 13 -41
24 -1 19 -72 47 -87 34 -7 -6 -27 -8 -43 -4 -32 6 -38 -2 -18 -22 18 -18 46
-14 58 7 10 19 11 19 40 3 34 -19 39 -32 11 -32 -10 0 -22 -7 -25 -16 -4 -11
-10 -13 -19 -7 -6 5 -39 10 -72 12 -32 1 -62 6 -66 12 -5 8 -8 8 -13 0 -4 -6
-16 -11 -26 -11 -10 0 -25 -7 -33 -15 -8 -8 -17 -11 -21 -8 -11 12 -6 22 14
28 11 3 20 13 20 21 0 8 4 14 10 14 5 0 7 7 4 15 -3 8 1 23 9 35 l14 20 23
-20 c28 -25 37 -25 44 -2 4 10 18 23 34 29 26 10 26 11 3 12 -16 1 -21 5 -17
16 3 8 9 22 13 31 4 12 2 15 -8 12 -8 -3 -16 -18 -19 -34 -4 -22 -11 -30 -30
-32 -14 -2 -22 -1 -18 3 4 4 3 16 -2 26 -7 12 -6 22 4 32 11 11 12 17 3 26 -9
10 -7 17 11 31 29 24 28 27 -7 26 l-30 -1 1 -69 c1 -64 -1 -71 -26 -88 -23
-17 -27 -18 -32 -4 -3 9 -17 16 -30 16 -13 0 -24 5 -24 10 0 6 10 10 23 10 53
0 62 9 63 58 1 26 -1 41 -3 35 -3 -7 -11 -13 -19 -13 -19 0 -75 -50 -68 -61 3
-5 -3 -20 -12 -34 -10 -15 -17 -43 -16 -65 1 -21 -4 -42 -11 -48 -9 -8 -12 2
-11 43 1 29 4 58 8 63 4 6 1 14 -6 19 -26 16 -40 53 -27 69 6 8 10 17 7 19
-10 11 -34 -6 -55 -40 -15 -23 -28 -32 -38 -29 -10 4 -14 1 -12 -7 2 -8 2 -10
-1 -6 -2 4 -11 2 -20 -5 -9 -7 -5 2 8 20 13 17 29 32 36 32 24 0 25 19 2 42
-13 13 -22 29 -20 35 2 7 -6 13 -18 13 -11 0 -20 4 -20 10 0 18 45 21 75 6 28
-15 30 -14 37 4 4 11 17 20 28 20 11 0 20 5 20 10 0 16 -95 12 -139 -6 -43
-17 -83 -62 -107 -120 -8 -20 -18 -34 -21 -30 -8 8 17 66 45 103 13 18 44 42
69 54 40 19 56 21 132 16 47 -3 106 -13 130 -22 41 -14 48 -14 87 1 92 35 214
34 277 -4z"/>
</g>
</svg>
